<svg xmlns="http://www.w3.org/2000/svg" viewBox="0 0 32 32" shape-rendering="crispEdges">

  <!-- Red ring (siege) -->
  <!-- Row 0 -->
  <rect x="8" y="0" width="4" height="4" fill="#e8475a"/>
  <rect x="12" y="0" width="4" height="4" fill="#f06878"/>
  <rect x="16" y="0" width="4" height="4" fill="#f06878"/>
  <rect x="20" y="0" width="4" height="4" fill="#e8475a"/>
  <!-- Row 1 -->
  <rect x="4" y="4" width="4" height="4" fill="#e8475a"/>
  <rect x="8" y="4" width="4" height="4" fill="#f06878"/>
  <rect x="20" y="4" width="4" height="4" fill="#f06878"/>
  <rect x="24" y="4" width="4" height="4" fill="#e8475a"/>
  <!-- Row 2 -->
  <rect x="0" y="8" width="4" height="4" fill="#e8475a"/>
  <rect x="4" y="8" width="4" height="4" fill="#e8475a"/>
  <rect x="24" y="8" width="4" height="4" fill="#e8475a"/>
  <rect x="28" y="8" width="4" height="4" fill="#e8475a"/>
  <!-- Row 3 -->
  <rect x="0" y="12" width="4" height="4" fill="#e8475a"/>
  <rect x="28" y="12" width="4" height="4" fill="#e8475a"/>
  <!-- Row 4 -->
  <rect x="0" y="16" width="4" height="4" fill="#e8475a"/>
  <rect x="28" y="16" width="4" height="4" fill="#e8475a"/>
  <!-- Row 5 -->
  <rect x="0" y="20" width="4" height="4" fill="#e8475a"/>
  <rect x="4" y="20" width="4" height="4" fill="#e8475a"/>
  <rect x="24" y="20" width="4" height="4" fill="#e8475a"/>
  <rect x="28" y="20" width="4" height="4" fill="#e8475a"/>
  <!-- Row 6 -->
  <rect x="4" y="24" width="4" height="4" fill="#e8475a"/>
  <rect x="8" y="24" width="4" height="4" fill="#f06878"/>
  <rect x="20" y="24" width="4" height="4" fill="#f06878"/>
  <rect x="24" y="24" width="4" height="4" fill="#e8475a"/>
  <!-- Row 7 -->
  <rect x="8" y="28" width="4" height="4" fill="#e8475a"/>
  <rect x="12" y="28" width="4" height="4" fill="#f06878"/>
  <rect x="16" y="28" width="4" height="4" fill="#f06878"/>
  <rect x="20" y="28" width="4" height="4" fill="#e8475a"/>

  <!-- Blue center (besieged) -->
  <rect x="12" y="12" width="4" height="4" fill="#4a6cf7"/>
  <rect x="16" y="12" width="4" height="4" fill="#6a8af9"/>
  <rect x="12" y="16" width="4" height="4" fill="#6a8af9"/>
  <rect x="16" y="16" width="4" height="4" fill="#4a6cf7"/>
</svg>
